<svg xmlns="http://www.w3.org/2000/svg" width="300" height="300" version="1.0" aria-label="馬">
  <path d="M140.9 252c-9.9 4.8-15.8 16.8-27.3 18.3-7.1-4.9 9.9-13.9 13.2-19.5 8.8-5.5 13.6-24 1.2-27.2a86 86 0 0 1-36.1-9c-1.7-10 15.5-1.5 22-3 15.6 1.1 35.4-2.1 42-18.4 6-12-.1-25.7-5.8-36.7a154.7 154.7 0 0 0-24-30.8 153.7 153.7 0 0 1-40.5 40.6c-3.5-4 10.4-13.8 13-19.8 9-11 19-22 22-36.4 2.8-12.6-15.8-7-23.1-8.5-9.2-.5-26 6.3-22.7-9.8 1.5-13.7 2-29.3 13-39.3 7-8.2 15.3-16 26.2-17.4 10.4-4.3 22.4-3.8 33.5-5.8a134 134 0 0 0 43.3-9.5c6-4.2 29.3-5.3 18.2 5.3-7.2 6.7-3.3 13.6-5.4 28.7 1.8 11.9 11.5 22 20.5 33.6 6.8 8.8 12.7 18.9 17.2 28-9.2 5.8-10.8-4.7-44.4-41.7-12.2 5.2-7.2 17.5 0 25 5.3 9 12 18 12.4 28.7-6.6 6-11.4-12.4-17.3-16.6-6.1-5.6-10.2-20.3-20.8-15.1-3.7 1.2-9.4 1.7-4.8 6.1 4.3 7.5 9.5 13.9 13.2 21.5 4.3 6.4 13.6 21 9 23.2-9.3-2.5-16.5-15.8-23.6-24.4-7.4-7-8.7-24.7-22.2-20.7-11.5-1.4-7.3 14.5-4.2 20.6 6.7 8.7 13.8 17.1 19.8 26.4 7.7 9.2 8.9 22.2 10.3 33.7a33.3 33.3 0 0 1-16.7 29.3c-8.6 4-5.8 21 1.6 24.3a97 97 0 0 1 29.6 11.4c-5.1 8.1-19.7.2-28 1.4-4.4 17.8 5.1 29.1-.2 31.8-4.5 2.4-8-15.5-14.1-28.3zM112.8 48c-11.1.6-14.9 7.3-20.8 19-7.3 14.4-9.2 22.3 7 25 5.5.6 13.1 4.2 21.9-.3-9.6-12.2-8.8-29-8.1-43.7zm41.7 38.6c14-5.3 16.3-23.6 9.7-35.5-3.9-14.6-19.8-6.6-30.3-6.3-13.5 1.7-10.7 18.2-10 27.8.4 10.4 9 19.8 19.8 16.6a39 39 0 0 0 10.8-2.6zm-14.8-17.1c-8.8-5.8-1.1-18 7.4-9.8 9.4 5.5-.3 19.2-7.4 9.8zm48.4-6.7c2.5-8 11.8-27.5-.7-29.2C169.3 37 170.6 37 178 51c3.7 7.6 0 17.3 2.1 24.4 4-3 5.8-8.2 8-12.6z" />
</svg>
