<?xml version="1.0" encoding="UTF-8" standalone="no"?>
<!-- Created with Inkscape (http://www.inkscape.org/) -->

<svg
   xmlns:dc="http://purl.org/dc/elements/1.1/"
   xmlns:cc="http://creativecommons.org/ns#"
   xmlns:rdf="http://www.w3.org/1999/02/22-rdf-syntax-ns#"
   xmlns:svg="http://www.w3.org/2000/svg"
   xmlns="http://www.w3.org/2000/svg"
   xmlns:sodipodi="http://sodipodi.sourceforge.net/DTD/sodipodi-0.dtd"
   xmlns:inkscape="http://www.inkscape.org/namespaces/inkscape"
   width="300"
   height="300"
   id="svg2"
   version="1.1"
   inkscape:version="0.48.3.1 r9886"
   sodipodi:docname="五-.svg">
  <defs
     id="defs4" />
  <sodipodi:namedview
     id="base"
     pagecolor="#ffffff"
     bordercolor="#666666"
     borderopacity="1.0"
     inkscape:pageopacity="0.0"
     inkscape:pageshadow="2"
     inkscape:zoom="1.979899"
     inkscape:cx="133.86591"
     inkscape:cy="154.17803"
     inkscape:document-units="px"
     inkscape:current-layer="layer1"
     showgrid="false"
     inkscape:window-width="1215"
     inkscape:window-height="1000"
     inkscape:window-x="65"
     inkscape:window-y="24"
     inkscape:window-maximized="1" />
  <metadata
     id="metadata7">
    <rdf:RDF>
      <cc:Work
         rdf:about="">
        <dc:format>image/svg+xml</dc:format>
        <dc:type
           rdf:resource="http://purl.org/dc/dcmitype/StillImage" />
        <dc:title></dc:title>
      </cc:Work>
    </rdf:RDF>
  </metadata>
  <g
     inkscape:label="Calque 1"
     inkscape:groupmode="layer"
     id="layer1"
     transform="translate(0,-752.36218)">
    <path
       style="fill:#000000"
       d="m 170.37721,1025.9206 c -9.45481,-1.5316 -34.74515,-1.9137 -56.20076,-0.849 -50.536719,2.5077 -80.197055,-0.8172 -78.318731,-8.7797 1.003584,-4.2543 6.707365,-6.086 21.323825,-6.8477 l 19.953768,-1.04 -2.335018,-27.40755 C 71.362932,940.6502 85.227096,890.85208 105.9962,868.94539 c 5.86329,-6.18445 10.60852,-12.65349 10.54494,-14.3756 -0.0636,-1.72217 -7.31584,-6.70371 -16.11614,-11.0702 -16.590655,-8.23182 -35.339901,-27.84064 -35.339901,-36.96013 0,-8.3985 11.439095,-6.05064 22.2511,4.56698 5.489652,5.39095 17.994001,14.8532 27.787441,21.02717 19.28742,12.1592 18.03779,12.30916 41.76582,-5.01134 2.69084,-1.96422 11.66125,-7.33173 19.9342,-11.9278 8.27295,-4.59607 16.58828,-10.37942 18.47851,-12.85188 4.25663,-5.5678 15.90258,-5.93583 15.90258,-0.50251 0,4.40873 -32.69492,30.58223 -38.20211,30.58223 -4.10623,0 -21.9648,12.06596 -21.9648,14.8403 0,1.06031 8.8542,9.43516 19.676,18.61075 26.90023,22.80816 37.95659,46.95918 37.71163,82.37559 -0.14182,20.50656 -2.50814,31.68393 -9.14954,43.21889 -8.14871,14.15276 -8.30575,15.65446 -1.73796,16.61706 12.50212,1.8325 30.85733,8.3207 30.85733,10.9075 0,3.8476 -20.80138,10.5539 -31.36011,10.1104 -5.20711,-0.2188 -17.20319,-1.6507 -26.65798,-3.1822 z m 5.30135,-33.27832 c 14.14554,-19.56381 13.81076,-62.99009 -0.68131,-88.37417 -10.9643,-19.20487 -33.96091,-40.72819 -43.5161,-40.72819 -10.88195,0 -24.17314,19.51136 -34.151351,50.13391 -5.711448,17.52806 -8.835042,85.73372 -4.202502,91.76407 1.41129,1.8371 18.057933,2.668 37.738683,1.8836 l 35.21359,-1.4034 9.59899,-13.27582 z M 48.968961,795.68052 C 37.53838,791.70777 43.50997,781.6881 59.713053,777.65312 76.519133,773.46797 220.733,769.74835 227.51948,773.325 c 5.89709,3.1079 14.54243,17.5676 10.69669,17.89062 -1.85594,0.15588 -32.38347,0.73334 -67.83896,1.28323 -35.45551,0.54992 -76.068188,1.91083 -90.250379,3.02429 -14.182204,1.11344 -28.203244,1.18426 -31.15787,0.15733 z"
       id="path3041"
       inkscape:connector-curvature="0" />
  </g>
</svg>
