<?xml version="1.0" encoding="UTF-8" standalone="no"?>
<svg
   xmlns:dc="http://purl.org/dc/elements/1.1/"
   xmlns:cc="http://creativecommons.org/ns#"
   xmlns:rdf="http://www.w3.org/1999/02/22-rdf-syntax-ns#"
   xmlns:svg="http://www.w3.org/2000/svg"
   xmlns="http://www.w3.org/2000/svg"
   version="1.1"
   id="svg82"
   width="300"
   height="300"
   viewBox="0 0 300 300">
  <metadata
     id="metadata88">
    <rdf:RDF>
      <cc:Work
         rdf:about="">
        <dc:format>image/svg+xml</dc:format>
        <dc:type
           rdf:resource="http://purl.org/dc/dcmitype/StillImage" />
        <dc:title></dc:title>
      </cc:Work>
    </rdf:RDF>
  </metadata>
  <defs
     id="defs86" />
  <path
     style="fill:#000000;stroke-width:0.69364649"
     d="m 86.653107,284.689 c -7.852991,-0.0172 -32.989952,-0.62457 -29.117687,-4.37078 5.783055,-5.59479 12.832329,-5.57575 23.423291,-6.72203 4.415018,-26.35867 14.39631,-43.81503 61.813469,-144.56713 C 127.36372,95.181163 108.5957,50.307492 100.63504,27.765363 92.56893,27.099031 71.834316,27.05892 71.560742,19.309475 71.405444,14.910406 81.082182,14.93152 105.79229,15.022319 l 118.97025,0.437167 c 14.92899,0.05486 17.63036,2.43592 18.10258,9.316856 0.18547,2.702589 -11.82219,2.828127 -18.60096,2.907413 l -16.6899,0.09456 -48.78579,102.606885 52.97462,119.82422 c 4.73652,10.71359 14.59568,35.81092 -1.82861,19.18631 -10.10699,-10.23026 -59.81907,-122.28805 -59.81907,-122.28805 l -60.79863,126.53304 138.90979,1.49517 c 21.80507,0.23471 3.18959,9.87124 -0.0529,9.86411 z M 196.40209,27.889808 l -81.99768,-0.23889 36.123,83.883402 c 31.11095,-62.331798 37.8404,-78.531506 45.87468,-83.644512 z"
     id="path92" />
</svg>
