<?xml version="1.0" encoding="UTF-8" standalone="no"?>
<!-- Created with Inkscape (http://www.inkscape.org/) -->

<svg
   xmlns:dc="http://purl.org/dc/elements/1.1/"
   xmlns:cc="http://creativecommons.org/ns#"
   xmlns:rdf="http://www.w3.org/1999/02/22-rdf-syntax-ns#"
   xmlns:svg="http://www.w3.org/2000/svg"
   xmlns="http://www.w3.org/2000/svg"
   xmlns:sodipodi="http://sodipodi.sourceforge.net/DTD/sodipodi-0.dtd"
   xmlns:inkscape="http://www.inkscape.org/namespaces/inkscape"
   width="300"
   height="300"
   id="svg2"
   version="1.1"
   inkscape:version="0.48.2 r9819"
   sodipodi:docname="四-seal.svg">
  <defs
     id="defs4" />
  <sodipodi:namedview
     id="base"
     pagecolor="#ffffff"
     bordercolor="#666666"
     borderopacity="1.0"
     inkscape:pageopacity="0.0"
     inkscape:pageshadow="2"
     inkscape:zoom="1.979899"
     inkscape:cx="251.44162"
     inkscape:cy="152.32382"
     inkscape:document-units="px"
     inkscape:current-layer="layer1"
     showgrid="false"
     inkscape:window-width="1280"
     inkscape:window-height="999"
     inkscape:window-x="0"
     inkscape:window-y="24"
     inkscape:window-maximized="1" />
  <metadata
     id="metadata7">
    <rdf:RDF>
      <cc:Work
         rdf:about="">
        <dc:format>image/svg+xml</dc:format>
        <dc:type
           rdf:resource="http://purl.org/dc/dcmitype/StillImage" />
        <dc:title></dc:title>
      </cc:Work>
    </rdf:RDF>
  </metadata>
  <g
     inkscape:label="Calque 1"
     inkscape:groupmode="layer"
     id="layer1"
     transform="translate(0,-752.36218)">
    <path
       style="fill:#000000"
       d="m 54.883892,1030.2679 c 0,-2.6792 5.519433,-10.8638 12.265406,-18.1881 13.881097,-15.07112 30.644738,-42.89684 30.644738,-50.86677 0,-2.91932 2.669914,-10.31106 5.933154,-16.42609 3.26322,-6.11501 6.99157,-17.51286 8.28521,-25.32853 2.31694,-13.99811 2.16465,-14.17686 -10.19846,-11.97043 -17.082325,3.04868 -35.818389,-4.59854 -48.973136,-19.98861 -9.863679,-11.53978 -10.672176,-15.02282 -8.127822,-35.01499 1.553973,-12.21028 6.339704,-26.68726 10.63496,-32.17103 28.55518,-36.45659 91.414938,-49.13367 159.006768,-32.06731 41.76275,10.54475 55.07991,25.84704 55.07991,63.29046 0,21.67404 -1.16073,24.58323 -14.58946,36.5663 -11.84739,10.57196 -17.89605,13.01883 -32.1826,13.01883 -22.28639,0 -23.85421,-9.05003 -2.91999,-16.85525 8.07023,-3.00897 16.75953,-8.94959 19.30955,-13.20141 12.41853,-20.70618 -1.5611,-55.24026 -23.91234,-59.07105 -6.71874,-1.15152 -12.9504,-1.44681 -13.84815,-0.65618 -0.89774,0.79062 -2.60715,21.15097 -3.79871,45.2452 -2.24351,45.36601 5.1388,97.95838 19.32015,137.63856 6.97052,19.5039 3.57327,28.7268 -8.99614,24.4228 -7.47588,-2.56 -24.17297,-34.35782 -24.2672,-46.21438 -0.0356,-4.47075 -2.84723,-15.02098 -6.24818,-23.44492 -8.7766,-21.739 -7.93748,-81.64869 1.60894,-114.87207 7.44761,-25.91916 7.44221,-26.91661 -0.16367,-30.23251 -4.65023,-2.02735 -15.3487,-1.99855 -26.17227,0.0704 -17.08524,3.26596 -18.20919,4.26133 -16.84279,14.91624 4.14852,32.34947 2.26352,104.50581 -3.09911,118.63068 -15.94648,42.00222 -33.277315,72.39599 -49.203899,86.29099 -13.376667,11.6702 -28.544859,15.1131 -28.544859,6.4792 z M 114.4504,846.43722 c 0.56569,-33.19902 -3.76777,-38.5876 -22.31228,-27.74486 -29.023971,16.96995 -24.119149,63.96265 7.801424,74.74479 10.894706,3.68002 13.808116,-5.75629 14.510856,-46.99993 z"
       id="path3028"
       inkscape:connector-curvature="0" />
  </g>
</svg>
