<?xml version="1.0" encoding="UTF-8" standalone="no"?>
<svg xmlns="http://www.w3.org/2000/svg" width="300" height="300">
  <path d="M104.23228 269.08975c-15.582632-5.06544-30.652262-11.45919-39.266582-29.57072-15.38331-32.34328-10.86615-115.58432-3.85432-165.691084 5.25679-48.31701 59.621252-50.644711 88.883612-50.016276 34.53171.741599 78.12618-1.934773 87.08271 34.901258 9.01496 37.076348 10.95897 110.925052 4.41276 160.936532-2.84784 21.75683-17.0329 39.93159-35.20007 47.71766-25.16814 10.78654-69.70058 12.24108-102.05811 1.72263zm77.72397-10.17856c23.06134-3.41395 36.28093-11.24239 38.87958-21.65486-21.42777-19.35461-41.15843-42.4086-47.97272-66.16058-4.83578-16.85564-6.00254-30.09481-6.88175-78.087161-.37279-18.168775-.65238-36.336341-1.68178-54.47942h-29.38714l-.45982 33.232445c.0792 39.338136-.98621 82.216276-14.32274 116.879046-11.60866 22.77271-24.248862 35.07307-41.914482 49.30719 18.93261 28.57542 83.287582 23.89326 103.740852 20.96334zm-72.19298-81.75589c7.88984-20.42938 9.3969-35.2382 10.0604-98.856156l.39964-38.317191c-33.867152 1.800192-45.101782 21.39677-48.026612 44.673122-1.62859 13.351306-1.68444 15.696795-3.31455 71.912835-.25364 22.19446 1.06443 57.53927 5.60363 68.48972 13.81643-13.74797 29.115862-32.08672 35.277492-47.90233zM227.00632 75.444088c-3.84988-23.595265-17.74468-35.164905-46.89899-35.937315-.38794 1.31922 1.91489 94.743567 2.47365 100.354117 1.07296 21.44365 6.09027 38.74909 14.97433 52.30024 7.63239 11.55051 26.45336 33.44015 28.24013 32.84457 11.2337-49.63036 5.60365-106.72612 1.21088-149.561612z"/>
</svg>