<?xml version="1.0" encoding="UTF-8" standalone="no"?>
<svg
   xmlns:dc="http://purl.org/dc/elements/1.1/"
   xmlns:cc="http://creativecommons.org/ns#"
   xmlns:rdf="http://www.w3.org/1999/02/22-rdf-syntax-ns#"
   xmlns:svg="http://www.w3.org/2000/svg"
   xmlns="http://www.w3.org/2000/svg"
   viewBox="0 0 300 300"
   height="300"
   width="300"
   id="svg272"
   version="1.1">
  <metadata
     id="metadata278">
    <rdf:RDF>
      <cc:Work
         rdf:about="">
        <dc:format>image/svg+xml</dc:format>
        <dc:type
           rdf:resource="http://purl.org/dc/dcmitype/StillImage" />
        <dc:title></dc:title>
      </cc:Work>
    </rdf:RDF>
  </metadata>
  <defs
     id="defs276" />
  <path
     id="path282"
     d="m 261.49612,228.91122 c -30.6165,-20.39025 -49.16036,-36.64903 -75.13663,-62.0518 -11.00255,1.15077 -25.96979,2.86789 -37.34994,2.88582 -10.21237,14.5046 -21.06294,31.47368 -33.45207,40.76573 -16.359175,12.1296 -44.133875,25.15382 -56.368625,26.43261 -4.66071,0.6636 -6.316691,-1.28869 -5.03722,-5.2233 12.68813,-17.92193 32.225888,-25.13387 48.964215,-46.46909 5.18707,-6.65713 10.2283,-14.7685 9.58099,-15.41583 -0.24178,-0.24177 -11.0403,-2.5043 -23.996725,-5.02784 -25.140154,-5.96495 -57.831808,-18.17274 -75.37767,-35.26665 -13.51209231,-13.88227 5.650702,-13.5675 16.12194,-17.13758 14.51374,-4.94577 25.06179,-9.04474 32.68765,-12.702405 C 116.28929,73.724984 179.84417,56.216526 209.29201,59.160484 c 21.01368,2.100776 41.79303,9.886903 49.89205,20.462042 21.84811,28.527744 13.82681,54.707274 -15.18293,68.648644 -21.5233,10.13506 -30.92317,13.34927 -30.91939,14.06821 4.18208,5.4522 7.28388,9.10146 31.37474,31.56402 20.41323,19.03349 26.56872,24.37805 34.62293,30.06164 5.76117,4.98736 18.11449,12.35481 9.00946,16.29765 -7.35994,4.13278 -19.30885,-7.07896 -26.59275,-11.35147 z M 175.5279,138.10884 c -2.99221,-17.61689 -4.70999,-33.46513 -6.94369,-51.117537 -13.6425,3.291719 -25.6494,5.417199 -39.57203,11.497242 8.41947,7.171715 23.90056,24.957515 26.62909,42.355045 6.92714,0.69872 13.41418,-0.6733 19.88663,-2.73475 z m -54.21719,3.59489 c 4.07725,-9.97572 1.43183,-30.65776 -10.48348,-34.89429 -4.64419,-1.474 -29.937695,11.84971 -36.991225,19.48566 -1.53829,1.6653 -1.63653,2.1135 -0.86928,3.9658 0.82062,1.98116 1.44999,2.2269 12.26697,4.78956 22.100595,5.23589 28.711025,6.87684 36.077015,6.65327 z m 118.70355,-26.00264 c 9.6246,-8.99083 -6.46792,-34.006504 -15.43644,-36.767576 -13.77464,-4.240696 -19.77131,-0.350531 -33.04184,3.193976 l 9.39003,8.236983 c 11.09083,9.676097 10.74266,7.747372 3.89716,18.252407 -7.57367,11.58825 -8.99606,18.05138 -5.84466,24.21822 10.98181,-0.50183 29.12116,-6.00397 41.03575,-17.13401 z"
     style="fill:#000000;stroke-width:0.72639227" />
</svg>
