<?xml version="1.0" encoding="UTF-8" standalone="no"?>
<svg
   xmlns:dc="http://purl.org/dc/elements/1.1/"
   xmlns:cc="http://creativecommons.org/ns#"
   xmlns:rdf="http://www.w3.org/1999/02/22-rdf-syntax-ns#"
   xmlns:svg="http://www.w3.org/2000/svg"
   xmlns="http://www.w3.org/2000/svg"
   viewBox="0 0 300 300"
   height="300"
   width="300"
   id="svg4055"
   version="1.1">
  <metadata
     id="metadata4061">
    <rdf:RDF>
      <cc:Work
         rdf:about="">
        <dc:format>image/svg+xml</dc:format>
        <dc:type
           rdf:resource="http://purl.org/dc/dcmitype/StillImage" />
        <dc:title></dc:title>
      </cc:Work>
    </rdf:RDF>
  </metadata>
  <defs
     id="defs4059" />
  <path
     id="path4065"
     d="m 95.869063,283.823 c 0.209181,-0.66631 3.930692,-12.89362 8.270017,-27.17178 16.75814,-47.29388 15.8088,-99.1898 17.25322,-143.03849 l 0.54227,-14.621604 C 107.06754,95.693326 85.629073,92.496607 76.491711,83.37312 64.08276,70.983011 64.770973,45.936311 72.868678,37.635436 89.333343,20.757676 119.52802,15.016103 168.61698,15.068749 c 35.03244,-0.849253 71.12464,5.682853 63.37065,47.053374 -3.3654,17.955696 -15.59788,25.619438 -35.73892,31.547293 -5.45492,1.625816 -10.92422,3.181621 -16.20921,5.293577 -1.71069,51.784277 -0.11971,108.200407 12.02573,152.150027 4.8076,17.32418 8.6512,31.76904 8.54137,32.0997 -14.20721,-12.02899 -24.53995,-36.09126 -26.36143,-51.48337 -8.11287,-77.13756 -10.62476,-130.1489 -9.27365,-202.822791 -8.17192,0.30082 -19.39477,1.422357 -27.58421,3.579886 -0.21705,61.811408 -3.24041,126.646575 -12.4121,183.320595 -3.48613,19.23861 -12.57379,41.96749 -25.39557,63.51617 -3.297972,5.54266 -4.49293,6.99178 -3.710607,4.49979 z M 216.27477,40.157847 c -7.21899,-8.87062 -17.35825,-8.343595 -27.3835,-8.841934 -9.77367,15.649866 -9.55819,36.105004 -8.87021,50.219578 24.387,3.593044 53.65037,-20.000814 36.25371,-41.377644 z m -95.28256,41.050771 c 0.54762,-23.926898 0.1492,-41.918722 -6.72018,-45.739786 -13.03814,-3.932329 -34.002669,10.514182 -32.96024,23.122041 1.749232,21.156427 22.87686,21.057969 39.68042,22.617745 z"
     style="fill:#000000;stroke-width:0.69227445" />
</svg>
