<svg xmlns="http://www.w3.org/2000/svg" width="300" height="300" aria-label="馬">
  <path d="M160 282.5c-1.2-4.3-1-6 2.4-16 3-9 15-59.8 17-72.3 1.1-6.9 1.3-28.3.2-29.4-1.4-1.4-19.4 14-29 25-15 17.1-20.6 26-32.4 52.1l-9.1 20-3.9.2c-3.8.2-3.9.2-4.3-2-.7-3 .2-9 2.1-15a217.3 217.3 0 0 1 27.5-47.2l11.7-13.6a152 152 0 0 1 24.3-24.1l11.6-9.8c1.2-1.1 1.2-1.5-.5-9.3-1-4.4-1.7-8.2-1.7-8.4 0-2-9.2 2.4-23.9 11.3-10 6-12.6 8-28.3 22a227.3 227.3 0 0 0-20.6 20c-3.7 5-5.6 6.5-9.3 7-2.4.3-2.8.1-3.5-1.5-.5-1-.8-2.5-.8-3.4 0-2.7 3.8-8.2 11.8-17.2a159 159 0 0 1 25.5-22.5 152.6 152.6 0 0 1 29.9-20.2 82 82 0 0 0 12.2-7.3c0-1.2-2.8-3.4-6.5-5.3a35.5 35.5 0 0 0-12.8-3.9l-4.5-.6-8.3 8a48.8 48.8 0 0 1-14.5 11.3 122.4 122.4 0 0 1-44 10.7l-6.8.4-.7-1.8c-1.8-4.9-1.8-4.9 3.2-7.1a84.5 84.5 0 0 1 24.1-7.2c11.3-1.6 20-5.5 29.6-13 3.8-3 3.9-3.2 2.4-4-.9-.5-5.2-2-9.5-3.4-14.2-4.5-18.3-7.4-22-15.4-3-6.3-3.9-12.4-3.4-25a108 108 0 0 1 4.4-29.2c1.6-5.3 2.3-6.5 4.7-8.5 9.9-8.5 21.4-11.1 52.2-11.8 19.5-.4 45.3.5 47.6 1.8 1.4.7 3.6 4.4 3.6 6.1 0 .9-4.5 2.8-8.6 3.6-2.3.5-9 .6-19.8.3-19-.6-16.9-1.6-17.6 8.5l-.5 6.4 3.7.2 16.1.1c14.4 0 17 .7 18.7 4.8 1.5 3.5.7 5-3 6.2-5.9 1.9-7.8 2-19 1.1a64 64 0 0 0-13.9-.2l-2.7.6-1.2 5.5c-.7 3-1.1 6-1 6.4.3.7 4.4.9 17.7.9 18.7 0 21.6.4 24.5 3.3a4.6 4.6 0 0 1 1.6 4.2c-.2 2.1-.6 2.7-2.7 3.7-4.7 2.3-9.7 2.8-21.6 2a90.3 90.3 0 0 0-22.4.9c-.4.4-5.9 18.5-5.6 18.6l8.5 2.9c4.5 1.4 9.6 3.4 11.4 4.3 7 3.7 11.1 9.5 15.2 21.1 1.5 4.4 3.3 9.2 4.1 10.8l1.5 2.8 3.6-2.8c2-1.6 6.5-4.3 10-6 5.4-2.5 6.8-3 10.8-3 2.5 0 5.2.4 6.1.7 2.2.8 5.7 8.4 7.1 15.6 2.3 11 2 48.4-.4 69.8a124.1 124.1 0 0 1-7.6 32.3c-2 5.2-2.2 5.4-5 6.1l-4 1c-1 .4-1.3-.4-2-3.3-.8-3.4-.7-4.2 1.3-11.2 2.2-7.8 5.3-25.4 7.4-41.8.9-7 1-12 .8-20.4-.5-12.7-1.6-28.6-2.2-33.1-1-5.9-.9-5.9-13.1 1.3-6 3.5-11.3 7-11.5 7.7-.3.7-.6 5.8-.6 11.3 0 8.2-.7 14.4-3.5 34.2a346 346 0 0 1-9.2 49.1c-1.3 4.6-3.3 12.5-4.5 17.6-3 13-5.5 16.8-11.2 17.7-2.4.4-2.5.3-3.3-2.3zM141.7 89.8c2.3-7.3 2.6-8.8 1.7-9.3-1.2-.8-35.2-.9-35.2-.1a19 19 0 0 0 4.3 9.6c3 2.9 18.1 7.8 25.5 8.4.8 0 1.8-2.2 3.7-8.6zm-9.1-22.9 15-.4V54.3h-40.8v13.1h5.4l20.4-.5zm17.8-32c0-7.8.5-7.2-7-8a73.7 73.7 0 0 0-24 3.9c-5.5 2.4-8.3 4.7-9 7.5-.5 1.4-.8 2.7-.8 3 0 .3 9.2.5 20.4.5h20.4z" />
</svg>
