<?xml version="1.0" encoding="UTF-8" standalone="no"?>
<!-- Created with Inkscape (http://www.inkscape.org/) -->

<svg
   width="300mm"
   height="300mm"
   viewBox="0 0 300 300"
   version="1.1"
   id="svg1"
   xml:space="preserve"
   inkscape:version="1.3.2 (091e20e, 2023-11-25, custom)"
   sodipodi:docname="𧶠-seal.svg"
   xmlns:inkscape="http://www.inkscape.org/namespaces/inkscape"
   xmlns:sodipodi="http://sodipodi.sourceforge.net/DTD/sodipodi-0.dtd"
   xmlns="http://www.w3.org/2000/svg"
   xmlns:svg="http://www.w3.org/2000/svg"><sodipodi:namedview
     id="namedview1"
     pagecolor="#ffffff"
     bordercolor="#000000"
     borderopacity="0.25"
     inkscape:showpageshadow="2"
     inkscape:pageopacity="0.0"
     inkscape:pagecheckerboard="0"
     inkscape:deskcolor="#d1d1d1"
     inkscape:document-units="mm"
     inkscape:zoom="0.74029882"
     inkscape:cx="396.46153"
     inkscape:cy="561.25984"
     inkscape:window-width="1920"
     inkscape:window-height="1009"
     inkscape:window-x="-8"
     inkscape:window-y="-8"
     inkscape:window-maximized="1"
     inkscape:current-layer="layer1" /><defs
     id="defs1" /><g
     inkscape:label="Layer 1"
     inkscape:groupmode="layer"
     id="layer1"><path
       style="fill:#000000"
       d="m 136.3429,296.46147 c -2.53321,-1.77433 -2.5443,-6.89132 -0.0445,-20.54018 1.61376,-8.81103 1.33374,-9.36897 -11.34215,-22.59984 -4.09936,-4.27883 -7.94505,-8.55459 -8.54598,-9.50169 -2.79359,-4.40282 -3.46214,-10.35591 -3.16062,-28.14355 0.32912,-19.41534 1.68349,-26.57907 6.06798,-32.09555 1.98105,-2.49252 3.54495,-3.64751 6.64964,-4.91097 4.98322,-2.02794 8.63806,-2.31566 26.50912,-2.08688 16.76234,0.21459 22.24929,0.54036 29.67868,1.76211 7.49554,1.23262 11.51946,2.90753 14.34209,5.96973 5.16801,5.60662 5.88954,13.93985 3.37967,39.03311 -1.37331,13.73013 -2.24278,18.06011 -4.3653,21.73931 -0.64562,1.11913 -2.89436,3.58295 -5.52883,6.05763 -4.74702,4.4591 -7.41332,7.576 -8.30372,9.70704 -0.96431,2.30792 -1.0029,6.57307 -0.15796,17.45925 0.44728,5.76287 0.73973,11.7687 0.64989,13.3463 -0.21295,3.73906 -0.57402,4.11694 -3.93375,4.11694 -4.18388,0 -5.02978,-1.35437 -6.45273,-10.33136 -0.50958,-3.21481 -1.26488,-7.99585 -1.67845,-10.62452 -1.8611,-11.82951 -3.9409,-15.25939 -9.25097,-15.25618 -2.34741,0.001 -7.86989,0.91241 -10.40068,1.7157 -4.19897,1.33279 -4.67134,2.76021 -5.33261,16.11401 -0.89151,18.00317 -1.38124,19.66911 -5.78211,19.66911 -1.38415,0 -2.44331,-0.21189 -2.99672,-0.59952 z m 29.50315,-46.86231 c 9.26653,-0.98126 17.33283,-4.47026 19.90241,-8.60861 0.88362,-1.42309 1.10218,-2.18413 1.09911,-3.8272 -0.01,-5.2867 -3.92582,-7.70232 -11.34786,-7.00012 -1.91965,0.18162 -8.67105,0.50271 -15.00311,0.71353 -14.43719,0.48069 -23.18561,1.00088 -28.60844,1.70109 -6.70968,0.86638 -6.54483,0.73443 -4.9371,3.95181 1.57633,3.15453 3.02034,5.1981 4.53069,6.41185 7.28362,5.85328 19.53873,8.22755 34.3643,6.65765 z m 17.25935,-28.77697 c 8.63237,-0.76009 9.10428,-1.1889 6.2513,-5.68039 -1.48144,-2.33225 -3.57363,-3.44979 -7.83618,-4.18567 -5.08867,-0.87849 -46.37545,-0.36848 -55.40195,0.68438 -2.24553,0.26192 -2.31,0.36821 -2.58828,4.26696 -0.16976,2.37835 -0.098,2.97069 0.43101,3.55518 0.79955,0.8835 3.4937,1.54252 7.74304,1.89406 5.7542,0.47602 44.50024,0.0731 51.40106,-0.53452 z m 0.27558,-20.9194 c 3.46338,-0.58924 4.55059,-1.03352 5.11641,-2.09076 0.97347,-1.81895 -0.13375,-6.48144 -1.97687,-8.32457 -2.56728,-2.56727 -8.12696,-3.22468 -27.24265,-3.2213 -7.81332,10e-4 -15.91499,0.19073 -18.38235,0.42962 -10.22696,0.99017 -13.76589,3.10297 -13.78072,8.22731 -0.008,2.87605 0.45864,3.90059 2.08808,4.58142 2.3898,0.99852 7.14934,1.16885 29.3397,1.04996 16.8745,-0.0904 22.39004,-0.23512 24.8384,-0.65168 z M 135.01316,163.5813 c -14.72347,-0.62057 -20.44286,-1.4208 -23.09697,-3.2316 -2.46002,-1.67838 -3.04443,-1.90354 -6.31468,-2.43293 -4.08856,-0.66185 -6.234857,-1.87866 -9.573262,-5.4274 -4.688071,-4.98345 -8.467213,-13.80857 -10.353805,-24.17838 -0.925005,-5.08436 -0.908761,-16.88257 0.03012,-21.875 0.900517,-4.78843 2.207873,-8.763965 3.594829,-10.931485 1.213552,-1.89652 3.793917,-3.96091 5.824067,-4.65946 5.413691,-1.86279 66.190441,-1.32793 103.492651,0.91078 17.19657,1.03206 20.39205,2.10307 21.48538,7.20107 0.72333,3.372785 1.20295,13.290195 1.23291,25.493805 0.0237,9.66391 -0.0807,12.28443 -0.58502,14.67521 -1.19195,5.65089 -4.22369,10.71389 -9.51189,15.88481 -6.10192,5.9666 -8.30637,6.83179 -19.97432,7.83937 -12.28291,1.06069 -39.91164,1.41984 -56.25001,0.73121 z m 28.16674,-8.43556 c 5.08927,-0.95379 5.1376,-2.9663 0.21665,-9.02109 -3.79997,-4.67553 -7.28592,-7.52242 -9.20199,-7.51505 -1.46874,0.006 -6.14515,2.03283 -9.83464,4.26322 -7.13424,4.31283 -12.51814,9.82489 -10.69626,10.95087 1.92123,1.18738 24.77326,2.21094 29.51624,1.32205 z m 32.21353,-2.44761 c 5.14446,-2.29267 8.97228,-4.8607 10.4529,-7.01271 0.96384,-1.40089 1.21016,-2.19459 1.44628,-4.66012 0.52139,-5.44431 0.44431,-6.37302 -0.58488,-7.04737 -2.11527,-1.38597 -8.17544,-3.6688 -14.70927,-5.54089 -12.08454,-3.46249 -16.26709,-5.2944 -19.96155,-8.74297 -2.99967,-2.80001 -3.9799,-4.74473 -4.4835,-8.895 -0.47252,-3.89415 -0.83847,-5.15464 -2.31038,-7.95797 -1.73275,-3.300095 -5.06643,-5.491385 -9.3701,-6.159125 -5.00349,-0.77632 -10.2423,1.26153 -14.70043,5.718335 -2.40137,2.40067 -2.91732,3.19564 -5.23019,8.05872 -3.22167,6.77394 -5.2877,9.86168 -8.78201,13.12498 -3.51399,3.28168 -7.83092,6.11991 -14.75634,9.70178 -3.0235,1.56377 -6.14176,3.39488 -6.92947,4.06913 -4.51228,3.86235 -2.77118,7.44861 5.66989,11.67869 7.0918,3.55391 9.56152,3.1809 15.4129,-2.32786 3.24702,-3.0569 5.64586,-4.88821 12.30186,-9.39141 7.15714,-4.84225 10.67069,-6.51504 13.74505,-6.54396 3.59164,-0.0338 5.54806,0.98316 11.29808,5.87278 1.73459,1.47504 4.12854,3.11296 5.31988,3.63983 2.27115,1.00441 7.0674,4.59834 13.15665,9.85854 4.21478,3.64094 6.16031,4.75327 7.86757,4.49818 0.65399,-0.0977 2.97017,-0.97143 5.14706,-1.94158 z m -94.57144,-20.65262 c 5.45094,-2.58061 15.64624,-11.68192 20.82944,-18.59439 2.52868,-3.37233 5.73642,-8.89449 6.60547,-11.37141 0.46686,-1.33062 0.44683,-1.45534 -0.33535,-2.088705 -1.22558,-0.99242 -4.10976,-1.21757 -12.55102,-0.97981 -12.24593,0.34492 -14.54237,1.318405 -17.610191,7.465165 -2.092759,4.1931 -3.002224,8.36809 -2.99447,13.7464 0.0078,5.39506 0.91172,10.23255 2.223753,11.90053 0.949073,1.20655 1.127133,1.20294 3.832368,-0.0778 z m 108.37578,-9.38922 c 2.51257,-1.07814 4.90005,-4.48015 5.93642,-8.45905 0.71407,-2.74147 0.44799,-3.88685 -1.29929,-5.59302 -0.78761,-0.76908 -1.43202,-1.60469 -1.43202,-1.85689 0,-0.25221 0.75071,-1.08609 1.66826,-1.85306 1.12252,-0.93831 1.63366,-1.63404 1.5625,-2.12674 -0.18059,-1.25034 -2.72092,-2.29777 -7.27488,-2.999595 -5.48403,-0.84516 -24.42397,-0.97472 -27.48428,-0.18801 -3.26246,0.838675 -4.16299,2.929515 -2.67429,6.209095 2.03715,4.4878 7.98768,9.6943 13.2468,11.59049 0.90993,0.32807 3.282,0.7744 5.27127,0.99184 4.14732,0.45332 5.12334,0.86831 7.4024,3.14736 1.80642,1.80643 2.93111,2.05843 5.07711,1.13758 z m -1.20666,-42.502285 c -15.88961,-1.24065 -29.25595,-3.92285 -33.77958,-6.7785 -2.0701,-1.30679 -3.23741,-3.91177 -3.71921,-8.2998 -1.19049,-10.842598 -2.14336,-12.029264 -10.62362,-13.230264 -1.4949,-0.211712 -5.23501,-0.398668 -8.31135,-0.415458 -8.23234,-0.04493 -9.01598,0.509395 -8.89603,6.29278 0.088,4.245522 -0.70851,6.884172 -3.46235,11.469232 -2.21514,3.68814 -3.70397,5.31885 -5.65639,6.19544 -2.34608,1.05333 -13.25159,2.30274 -28.6702,3.28465 -7.507333,0.47809 -21.030367,0.49106 -21.321221,0.0204 -0.346177,-0.56012 2.393673,-2.16656 6.027819,-3.53426 8.441089,-3.17676 17.538202,-5.40756 25.447482,-6.24025 3.29961,-0.34738 6.21021,-0.88746 7.99248,-1.48307 10.88447,-3.63739 13.32726,-11.107477 4.27364,-13.068856 C 124.195,53.694989 111.6499,53.779036 96.316544,54.573575 81.8141,55.325058 72.864358,55.240692 70.796429,54.333005 68.012153,53.110888 68.24152,51.0341 71.285962,49.900567 c 3.969535,-1.477972 13.098722,-2.677728 17.955141,-2.359662 2.151226,0.140892 3.697808,0.470327 4.963235,1.057209 1.73789,0.806002 2.23962,0.850835 9.191182,0.821295 4.07864,-0.01733 9.7268,-0.295018 12.68382,-0.623587 8.35281,-0.928122 14.92866,-1.14172 17.09559,-0.555301 2.31748,0.627161 4.70045,0.261807 7.73336,-1.185668 6.34936,-3.030268 8.5604,-7.072169 4.74155,-8.667787 -1.60804,-0.671882 -3.25948,-0.806484 -15.41609,-1.256506 -10.50012,-0.38865 -14.93893,-0.830415 -17.12227,-1.704016 -3.17024,-1.268479 -7.2818,-7.130957 -8.62251,-12.294436 -1.45425,-5.600707 0.37876,-10.629933 3.87429,-10.629933 1.43376,0 3.19554,2.148687 5.26673,6.423363 3.72774,7.693598 6.9906,9.908155 16.05229,10.894953 4.43401,0.482853 10.0154,0.222595 12.7701,-0.595466 2.18417,-0.648627 3.77955,-2.299746 4.47951,-4.635998 0.24301,-0.811095 0.58661,-4.648294 0.76356,-8.527108 0.28116,-6.1633833 0.61133,-9.0091023 1.3153,-11.3367673 0.47692,-1.5769 5.69271,-2.424906 7.43007,-1.208012 1.92372,1.347427 2.49561,3.708636 3.3783,13.9482703 0.78671,9.126332 1.19315,10.503547 3.355,11.368548 1.91916,0.767895 10.8625,0.789706 14.4236,0.03518 3.01465,-0.638745 5.93109,-2.054959 7.73334,-3.755278 1.71986,-1.622584 3.8853,-5.421783 5.1976,-9.119034 1.95497,-5.507853 4.84647,-7.1299893 7.85862,-4.408692 2.33172,2.106569 3.14966,4.436745 3.16069,9.00428 0.008,3.387117 -0.10157,4.07736 -0.89531,5.631163 -2.69369,5.273041 -8.11835,7.529863 -22.26837,9.26431 -8.08268,0.99074 -11.93069,1.837498 -15.04446,3.310546 -3.19132,1.509737 -3.52453,2.958391 -0.92016,4.000455 1.66925,0.667902 8.06957,1.131939 23.14497,1.678061 5.76287,0.208767 15.19302,0.552502 20.95588,0.763857 11.14126,0.408608 17.64917,1.104993 19.81307,2.120113 1.12599,0.528223 1.3437,0.827432 1.43943,1.978301 0.0932,1.120638 -0.0529,1.464539 -0.8422,1.98168 -0.52525,0.344151 -1.65137,0.786339 -2.50249,0.982641 -0.85113,0.196301 -10.7295,0.479161 -21.95192,0.628577 -13.91628,0.185282 -21.13792,0.418929 -22.7112,0.734789 l -2.30679,0.463123 0.2436,1.33781 c 0.13398,0.735795 0.70768,2.661339 1.27488,4.278985 3.03348,8.65139 3.27873,8.79863 15.6057,9.36899 8.48455,0.39258 11.71331,0.97133 13.91556,2.49435 1.72743,1.19465 4.55763,1.55112 8.63337,1.08741 3.57176,-0.40637 9.46223,-0.14185 10.89635,0.48931 1.6436,0.72336 3.125,2.21406 3.125,3.14463 0,1.27741 -1.64327,2.94027 -3.39445,3.43492 -1.95088,0.55105 -14.52529,0.79886 -19.76732,0.38957 z"
       id="path1" /></g></svg>
