<?xml version="1.0" encoding="UTF-8" standalone="no"?>
<!-- Created with Inkscape (http://www.inkscape.org/) -->

<svg
   xmlns:dc="http://purl.org/dc/elements/1.1/"
   xmlns:cc="http://creativecommons.org/ns#"
   xmlns:rdf="http://www.w3.org/1999/02/22-rdf-syntax-ns#"
   xmlns:svg="http://www.w3.org/2000/svg"
   xmlns="http://www.w3.org/2000/svg"
   xmlns:sodipodi="http://sodipodi.sourceforge.net/DTD/sodipodi-0.dtd"
   xmlns:inkscape="http://www.inkscape.org/namespaces/inkscape"
   width="300"
   height="300"
   id="svg2"
   version="1.1"
   inkscape:version="0.48.2 r9819"
   sodipodi:docname="四-oracle.svg">
  <defs
     id="defs4" />
  <sodipodi:namedview
     id="base"
     pagecolor="#ffffff"
     bordercolor="#666666"
     borderopacity="1.0"
     inkscape:pageopacity="0.0"
     inkscape:pageshadow="2"
     inkscape:zoom="1.979899"
     inkscape:cx="233.5918"
     inkscape:cy="184.436"
     inkscape:document-units="px"
     inkscape:current-layer="layer1"
     showgrid="false"
     inkscape:window-width="1280"
     inkscape:window-height="999"
     inkscape:window-x="0"
     inkscape:window-y="24"
     inkscape:window-maximized="1" />
  <metadata
     id="metadata7">
    <rdf:RDF>
      <cc:Work
         rdf:about="">
        <dc:format>image/svg+xml</dc:format>
        <dc:type
           rdf:resource="http://purl.org/dc/dcmitype/StillImage" />
        <dc:title></dc:title>
      </cc:Work>
    </rdf:RDF>
  </metadata>
  <g
     inkscape:label="Calque 1"
     inkscape:groupmode="layer"
     id="layer1"
     transform="translate(0,-752.36218)">
    <path
       style="fill:#000000"
       d="m 72.462149,1018.3715 c -22.786063,-4.8911 -26.709842,-8.8744 -16.757233,-17.0113 3.254748,-2.661 14.590039,-4.876 31.32874,-6.1219 34.557724,-2.57227 159.965454,-2.87038 164.234684,-0.3904 5.13847,2.9848 3.95293,14.8197 -1.76238,17.5933 -2.80502,1.3612 -10.31484,3.3617 -16.68849,4.4455 -15.4614,2.6292 -149.252955,3.868 -160.355321,1.4848 z m 42.257371,-58.28165 c -0.80143,-0.70874 -12.77134,-1.9002 -26.59978,-2.64768 -17.081361,-0.92332 -28.060418,-2.97905 -34.243042,-6.41169 -10.434621,-5.79339 -10.935167,-7.24829 -4.279249,-12.43824 3.824728,-2.98234 21.141593,-3.75931 83.786161,-3.75931 43.43075,0 89.45649,0.61631 102.27942,1.36957 22.46748,1.31981 23.34622,1.62683 24.19032,8.45184 1.69804,13.72958 -3.23568,14.7489 -76.36611,15.77744 -37.02081,0.52068 -67.96629,0.36681 -68.76772,-0.34193 z M 88.490806,892.34586 c -29.342114,-2.52585 -37.885917,-4.98113 -37.885917,-10.88749 0,-13.03458 19.205995,-16.1638 103.560411,-16.87303 67.04505,-0.56371 73.88415,-0.18375 84.35603,4.68666 14.63797,6.80802 15.54062,10.24411 3.74145,14.24246 -20.43131,6.9235 -113.70574,12.28042 -153.771974,8.8314 z m -1.45715,-64.05595 c -28.390815,-7.5992 -32.526355,-16.07025 -10.05661,-20.59949 23.190254,-4.67448 130.888774,-3.87478 143.468184,1.06531 10.64398,4.18002 19.58925,11.08467 19.58925,15.1205 0,3.63469 -17.35034,6.38685 -34.97162,5.54731 -22.93448,-1.09268 -23.67065,-1.08693 -67.02893,0.52444 -25.34224,0.94182 -43.491463,0.35177 -51.000274,-1.65807 z"
       id="path3092"
       inkscape:connector-curvature="0" />
  </g>
</svg>
