<svg xmlns="http://www.w3.org/2000/svg" width="300" height="300" version="1.0" aria-label="馬">
  <path d="M151.3 285.2c-.7-6.2 16.4-18.1 2.5-16.7a37 37 0 0 1-31 1.6c-14.3-7 8.1-10.2 14.6-9.8 4.5-.6 13.3-2.6 6.1-6.7-3.9-4.8-12.8-9.8-10.8-16.1 9.5-1.8 16.7 7.6 25.3 10.6 3.3 2.4 5.1 4.7 10.3.7 4.7-4 10.7-7 2-10.2-8.5-3-16-5.1-25.5-10-11-5.6-23.6-5.7-35.3-8.9-6.4 2.5 4.5 17.1-2.6 23.7-2.2 4-8.8-8.6-10.1-11.7a89.2 89.2 0 0 1-6.9-35.3c1.3-6.5-4-24 4.4-23 6.6 8.6 1.1 23 11.6 29.2 12.6 7.3 27.7 7.5 41.7 10.2 1.6-7.8-8-20.2-9.7-30-5.7-16.6-.8-34.3-2.9-51.2-6.7-7.8-19.8-6.5-29.2-10.5-14-7.5-.7 18-11.4 18.4-6.6-9.8-7-22-4-33 .8-5 3.3-22.7 9.7-14.4-2.1 10.8 4.4 17.4 15.2 17.1 14.3 2.4 28.3 6.3 42.6 8.2 6.7-5.5-4.4-18.3-4.3-26.8-7.4-7.5-23.7 1.1-33-7.3-6-7.4-15.7-10.8-23.8-4.2-13.2-.4-11-15-14.3-23.8-1-7.2 10.6-8.2 2.5-16-2.5-3.2-4-6.5.3-9 7.3-8 19.6-2.1 29-2.6 13.3.8 26.2 4.4 38.9 8.4 13 1.1 26.5.4 39.1-3 10-3 18.9-8.3 24.1-17.7 8.8-5.2 6.2 14.6 5.7 20.1a39 39 0 0 1-14.4 27c-5.6 7.1-21.4 11-18.4 21.8 9.7 6.3 24.6 3.5 31.6 14.4-3.8 8-18.5-.1-25.8-2-7.5-2-1.8 12.7 5.3 9.9 6.7 2 28.2 4 19.9 13.4-9.3 1-20.6-4.8-27.4-7.7a89.4 89.4 0 0 0-7.8 36.9c-4 11.9-4.8 24 2.6 34.8 6.6 15.6 7.3 33 5.8 49.6a35.6 35.6 0 0 1-18 24.6c-4.1 8.9-7.1 19.1-15 25.7-2.2 2-7.5 5.9-9.2 1.3zm33.6-53.7c-3.4-17.6-5.1-35.9-13-52.3-5.7-10.9 1.5-21.5 3.7-32-1-3.6 1.1-12.3-3.2-13.2-7.7-.2-15.5-1.2-23.3-.2-3.5 10.5-2.1 22.3-1.3 33.3a97.5 97.5 0 0 0 9 32.4c4 8.8 10 17.9 13 27.7 1.7 2.4 17.7 12.9 15.1 4.3zm-5.7-125.4c1.6-7.5-2.3-29.4-12.7-20 .3 9.7 3.1 19.6 7.4 28.4 6.1 13 5-4 5.3-8.4zM148.5 73c-2.1-9.5 0-25.5-12.3-28a73.2 73.2 0 0 0-36-5.6c4.2 3.3 12.4 11.5 2 14.7-7-.7-11.7 5.9-3.7 9.2 8.6-4.5 22.1-5.5 26 5.4 6 7.3 15.8 6 24 4.3zm26.3-3.7c3.5-8.7 5.2-23.8-9.9-21.5-12.5 2-6.9 21.7-.5 23.7 3.5-.4 7-1 10.4-2.2zM199.5 55c4.2-2.8 15.5-18 3.1-12-9.9 0-19.5 13.4-11.2 19 2.9-2.1 5.5-4.6 8.1-7zm-.9 94.2c-12.3-4.8-15.2-11.3 1.3-8.6 8.6 1.6 23.5 3.5 24.5 12a50 50 0 0 1-25.8-3.4zm11.5-14.3c-30-9.1-22.3-14-2.5-10.4 5.7 1.3 23.7 6.5 15.7 12.3-4.4.3-9-.4-13.2-2z" />
</svg>
