<svg xmlns="http://www.w3.org/2000/svg" width="300" height="300" aria-label="馬">
  <path d="M30.7 239.6c-1.8-3 .7-7 4.4-7 4.3 0 12.2-9.2 16.2-18.8 3.5-8.5 8.2-13.5 8.2-8.8 0 1.3 2.6 3.4 5.7 4.6 3.2 1.2 5.8 3.7 5.8 5.6 0 3.7-6 10.5-9.4 10.5-1.1 0-6.8 3.7-12.6 8-10.8 8.3-15.8 9.9-18.3 5.8zm216.6-5.2c3.3-3.8 5.3-10.7 7-24.5 2.8-22.3 2.2-25-6-27.2-3.4-1-41.3-1.6-84.2-1.4-62.4.2-81.2 1-93 3.8-8 2-15.3 4.5-16 5.5-.8 1-3.9 2-7 2.4-3 .4-8.7 2.2-12.4 4-9.5 4.8-10.7 4.4-10.7-3.3 0-10.5 2.2-13.7 10.3-15.2 8.5-1.6 8-.4 13.7-41.3 3.3-24.6 1.6-58.4-3.3-64.3-3-3.6.5-12.4 5.2-13 5.7-.7 27-1.1 82.1-1.6 87.5-.6 117.2 2.1 117.2 10.8 0 2.8-4 3-27 1.4-32-2.3-47.8-2.4-55.8-.4-5.2 1.3-5.8 2.6-5.7 12.5v11l24.2 1.5 33.9 2.2c5.4.3 9.8 1.4 9.8 2.5 0 1 1.5 1.8 3.4 1.8s3.5 1.7 3.5 3.7c0 3-2.2 3.4-14.4 2.1-8-.8-25.4-1.8-39-2.2-27-1-27-.9-27 14 0 8.6 5.3 16.6 8.1 12 1.5-2.4 8-2.2 49.3 1.7 14.4 1.4 20.6 5.3 15.2 9.8-2.6 2.2-6.6 2-18.6-.8-19-4.3-53.8-4.8-55.2-.6-2.6 8.3-2.9 26.7-.4 27.7a276 276 0 0030.8 1.4c15.4.2 30.4.9 33.3 1.5a1112.2 1112.2 0 0022.5 4.3c3.1.6 10.9 1.7 17.2 2.4 15.4 1.9 19 5.6 15.4 15.7.8 5.2-7.3 18-7.4 18.7a65 65 0 01-10.7 23.7c-1.5 1.5-5 2.8-7.9 2.8h-5.2l4.8-5.1zM80.4 171.1c8-1 24.8-1.7 37.1-1.7H140l1.4-7a62 62 0 00.5-15l-.7-7.9-23 .5c-29.4.6-38 1.4-38 3.5 0 1-2.5 1.8-5.5 1.8-3.1 0-8.3 1-11.5 2.2-5.4 2-6 3.4-6 15.1 0 11.5.5 12.7 4.3 11.5 2.4-.7 11-2 19-3zm-.5-38.3c1-.6 14.7-1.8 30.4-2.6s29.1-1.9 29.9-2.3c2.4-1.5 4.2-13.8 2.8-19-1.3-4.9-2-5-30.4-3.7-16.6.8-33.2 2.8-38.8 4.8a95 95 0 00-9.9 3.9l-1.3 11-1.2 10.7 8.2-.8c4.6-.4 9.2-1.3 10.3-2zm11.8-36.9 15.5-3.3c.3 0 8.8-.2 19-.2h18.3v-25.3h-14.3c-15.3.1-55.6 4-61.9 5.9-4.4 1.4-6 8.4-4.7 20.3 1 8.1 1.5 8.6 7 7.3 3.4-.9 12.8-3 21-4.7zM108.9 230.6c-1-3.1-1.8-10.8-2-17.2-.1-10.2.5-11.8 4.6-12.4 7.1-1 12 8 9.6 17.4-1.1 4-3 7.4-4.3 7.4-1.3 0-3.2 2.3-4.2 5.2l-2 5.1zm47.8-.6a44 44 0 01-4-13.4 225 225 0 00-2.8-15.4c-1.7-7 4.8-9.4 10.8-4 5.3 4.8 6 17.7 1.4 28.5-2.3 5.6-3.6 6.6-5.4 4.3zm51.7-10.5a89 89 0 00-8.4-11.7c-2.5-3-4-6.7-3.4-8.5 1-2.6 2.8-2.5 10.6.6 12.5 5 17.8 10.7 17.8 19 0 6-.9 7-6.4 7-4.6 0-7.5-1.9-10.2-6.4z" />
</svg>
